<?xml version="1.0" standalone="no"?>
<!DOCTYPE svg PUBLIC "-//W3C//DTD SVG 20010904//EN"
 "http://www.w3.org/TR/2001/REC-SVG-20010904/DTD/svg10.dtd">
<svg version="1.0" xmlns="http://www.w3.org/2000/svg"
 width="411.000000pt" height="108.000000pt" viewBox="0 0 411.000000 108.000000"
 preserveAspectRatio="xMidYMid meet">

<g transform="translate(0.000000,108.000000) scale(0.100000,-0.100000)"
fill="#FFFFFF" stroke="none">
<path d="M2160 630 l0 -290 60 0 60 0 0 109 c0 89 3 112 18 129 27 31 55 35
85 11 26 -20 27 -23 27 -135 l0 -114 60 0 60 0 0 133 c0 112 -3 137 -19 163
-36 59 -153 82 -201 39 -9 -8 -20 -15 -23 -15 -4 0 -7 59 -7 130 l0 130 -60 0
-60 0 0 -290z"/>
<path d="M253 899 c-48 -14 -99 -68 -113 -118 -10 -37 -9 -51 5 -86 20 -53 33
-65 131 -118 71 -38 79 -45 82 -75 3 -27 -1 -34 -23 -42 -43 -16 -77 -11 -134
20 -30 17 -55 29 -56 28 -22 -30 -55 -100 -50 -108 12 -20 87 -51 145 -62 144
-25 260 47 260 162 0 78 -30 113 -152 174 -86 43 -105 69 -78 102 16 18 81 18
126 -1 20 -8 39 -13 43 -10 4 2 16 22 26 45 23 50 15 61 -64 84 -60 18 -100
19 -148 5z"/>
<path d="M2622 884 c-47 -32 -16 -124 42 -124 37 0 69 32 69 68 0 62 -60 92
-111 56z"/>
<path d="M3085 880 c-59 -65 33 -162 95 -100 26 26 26 81 2 103 -26 23 -75 21
-97 -3z"/>
<path d="M2830 755 c0 -63 -1 -65 -25 -65 -23 0 -25 -4 -25 -45 0 -41 2 -45
25 -45 25 0 25 -1 25 -92 0 -75 4 -99 20 -125 25 -42 79 -59 138 -44 45 13 47
18 28 71 -10 26 -18 35 -37 35 -23 0 -24 3 -27 78 l-3 77 36 0 c35 0 35 0 35
45 0 45 0 45 -35 45 l-34 0 -3 63 -3 62 -57 3 -58 3 0 -66z"/>
<path d="M725 680 c-47 -24 -45 -24 -45 -5 0 12 -13 15 -60 15 l-60 0 0 -260
0 -260 60 0 60 0 0 100 0 101 33 -18 c17 -9 55 -17 82 -17 100 -1 165 71 165
180 0 79 -29 131 -90 162 -55 27 -94 28 -145 2z m68 -91 c44 -20 59 -77 31
-117 -22 -32 -57 -43 -94 -31 -34 12 -50 35 -50 74 0 65 55 101 113 74z"/>
<path d="M1127 690 c-83 -25 -132 -99 -125 -190 7 -104 79 -165 193 -164 33 0
71 6 85 13 28 15 80 61 80 71 0 4 -18 15 -40 25 -37 17 -41 17 -64 1 -51 -33
-136 -9 -136 39 0 13 21 15 125 15 l125 0 0 30 c0 115 -123 196 -243 160z
m108 -90 c10 -11 16 -23 13 -26 -3 -3 -34 -4 -69 -2 l-64 3 23 23 c28 28 73
29 97 2z"/>
<path d="M1515 682 c-122 -57 -151 -193 -62 -287 54 -55 109 -72 186 -57 57
12 121 53 121 78 0 8 -16 22 -35 31 -33 16 -37 16 -64 0 -54 -32 -131 -12
-131 34 0 18 8 19 121 19 l122 0 -5 51 c-9 86 -64 137 -160 145 -39 4 -64 0
-93 -14z m128 -84 l22 -23 -64 -3 c-35 -2 -66 -1 -69 2 -3 3 3 15 13 26 24 27
69 26 98 -2z"/>
<path d="M1935 688 c-182 -65 -159 -312 33 -353 34 -7 128 10 137 25 3 5 -2
24 -11 44 -17 34 -19 35 -60 29 -38 -5 -46 -2 -73 25 -38 38 -39 70 -4 112 25
30 30 32 73 27 46 -6 47 -5 64 29 20 43 16 50 -32 64 -46 12 -88 12 -127 -2z"/>
<path d="M3790 684 c-74 -32 -113 -90 -113 -170 0 -101 79 -178 182 -179 31 0
68 4 83 8 27 7 98 63 98 76 0 9 -66 41 -84 41 -8 0 -19 -7 -26 -15 -29 -35
-130 -7 -130 36 0 18 8 19 125 19 125 0 125 0 125 24 0 35 -20 88 -44 115 -49
55 -146 75 -216 45z m125 -84 c10 -11 16 -23 13 -26 -3 -3 -33 -4 -67 -2 l-61
3 15 23 c21 29 75 30 100 2z"/>
<path d="M2604 677 c-2 -7 -3 -85 -2 -172 l3 -160 58 -3 57 -3 0 176 0 175
-55 0 c-36 0 -57 -5 -61 -13z"/>
<path d="M3072 518 l3 -173 58 -3 57 -3 0 176 0 175 -60 0 -60 0 2 -172z"/>
<path d="M3230 682 c0 -5 40 -83 88 -173 l88 -164 40 -3 40 -3 89 168 c50 92
92 171 93 175 2 4 -28 8 -66 8 l-69 0 -43 -92 -43 -93 -43 93 -43 92 -66 0
c-36 0 -65 -4 -65 -8z"/>
</g>
</svg>
