<?xml version="1.0" standalone="no"?>
<!DOCTYPE svg PUBLIC "-//W3C//DTD SVG 20010904//EN"
 "http://www.w3.org/TR/2001/REC-SVG-20010904/DTD/svg10.dtd">
<svg version="1.0" xmlns="http://www.w3.org/2000/svg"
 width="1500.000000pt" height="1500.000000pt" viewBox="0 0 1500.000000 1500.000000"
 preserveAspectRatio="xMidYMid meet">

<g transform="translate(0.000000,1500.000000) scale(0.100000,-0.100000)"
fill="#000000" stroke="none">
<path d="M7997 8824 c-4 -4 -7 -439 -7 -966 l0 -958 200 0 199 0 3 359 3 359
30 44 c45 63 125 108 192 108 66 0 108 -17 150 -61 60 -64 63 -85 63 -465 l0
-344 201 0 201 0 -4 423 c-4 413 -4 423 -27 480 -47 119 -141 202 -282 248
-60 19 -94 24 -184 24 -128 0 -176 -17 -282 -97 l-63 -47 -2 447 -3 447 -191
3 c-104 1 -193 -1 -197 -4z"/>
<path d="M1682 8760 c-216 -57 -393 -227 -432 -417 -20 -93 -9 -227 23 -298
71 -152 160 -227 435 -361 150 -73 203 -105 243 -143 l51 -50 -4 -65 c-3 -59
-8 -70 -38 -101 -44 -45 -109 -65 -212 -65 -120 0 -277 63 -409 163 -28 21
-55 35 -59 30 -17 -19 -200 -332 -200 -342 0 -6 30 -31 68 -55 205 -132 385
-186 624 -186 318 0 548 119 642 331 36 81 49 164 44 276 -3 81 -9 108 -32
156 -61 127 -212 251 -419 344 -180 81 -276 133 -319 173 -33 32 -38 43 -38
81 0 152 172 208 400 130 52 -17 116 -45 143 -61 l47 -29 82 162 c46 89 83
166 83 171 0 19 -133 87 -238 120 -190 60 -347 72 -485 36z"/>
<path d="M9593 8744 c-55 -20 -128 -99 -143 -155 -27 -100 16 -209 104 -264
43 -26 59 -30 121 -30 62 0 78 4 121 30 157 98 147 326 -18 411 -44 23 -134
27 -185 8z"/>
<path d="M11180 8751 c-129 -42 -200 -162 -169 -284 14 -58 78 -133 134 -158
110 -51 250 3 305 116 33 68 26 168 -16 227 -56 80 -173 126 -254 99z"/>
<path d="M10220 8265 l0 -215 -85 0 -85 0 0 -150 0 -149 83 -3 82 -3 5 -290
c5 -263 7 -295 27 -347 62 -165 174 -238 366 -238 94 0 186 19 248 51 l38 19
-13 42 c-7 24 -28 94 -47 156 -26 87 -37 112 -49 108 -89 -30 -99 -31 -127
-10 -44 33 -53 91 -51 314 l3 195 118 3 117 3 0 149 0 150 -120 0 -120 0 0
215 0 215 -195 0 -195 0 0 -215z"/>
<path d="M3293 8065 c-71 -20 -119 -45 -186 -100 l-57 -46 0 65 0 66 -195 0
-195 0 0 -865 0 -865 200 0 200 0 0 340 c0 187 3 340 6 340 3 0 20 -11 36 -26
43 -35 118 -72 185 -89 74 -19 223 -19 298 0 222 58 390 267 414 515 32 326
-152 608 -437 669 -71 15 -205 13 -269 -4z m135 -340 c49 -21 110 -80 133
-130 22 -47 25 -156 7 -217 -16 -53 -78 -121 -135 -148 -104 -49 -252 -18
-323 68 -80 97 -80 257 0 354 47 57 120 88 207 88 44 0 89 -6 111 -15z"/>
<path d="M4572 8060 c-113 -30 -186 -74 -282 -170 -95 -95 -138 -169 -166
-286 -21 -90 -14 -234 16 -321 58 -169 205 -312 388 -381 91 -34 271 -42 393
-18 99 20 226 78 288 132 46 40 121 130 121 145 0 5 -62 40 -138 78 l-138 69
-58 -48 c-113 -93 -262 -105 -380 -30 -49 32 -82 84 -92 149 l-7 41 419 2 419
3 -3 90 c-6 168 -49 279 -150 386 -76 81 -183 140 -297 164 -98 21 -243 18
-333 -5z m286 -259 c50 -26 78 -58 97 -110 8 -24 15 -45 15 -47 0 -2 -99 -4
-220 -4 l-220 0 6 28 c15 61 51 106 109 136 44 23 165 21 213 -3z"/>
<path d="M5922 8060 c-113 -30 -186 -74 -282 -170 -95 -95 -138 -169 -166
-286 -21 -90 -14 -234 16 -321 58 -169 205 -312 388 -381 91 -34 271 -42 393
-18 99 20 226 78 288 132 46 40 121 130 121 145 0 5 -62 40 -138 78 l-138 69
-58 -48 c-113 -93 -262 -105 -380 -30 -49 32 -82 84 -92 149 l-7 41 419 2 419
3 -3 90 c-6 168 -49 279 -150 386 -76 81 -183 140 -297 164 -98 21 -243 18
-333 -5z m286 -259 c50 -26 78 -58 97 -110 8 -24 15 -45 15 -47 0 -2 -99 -4
-220 -4 l-220 0 6 28 c15 61 51 106 109 136 44 23 165 21 213 -3z"/>
<path d="M7330 8073 c-191 -32 -388 -185 -470 -366 -74 -164 -64 -369 26 -523
41 -69 127 -158 202 -207 134 -87 232 -113 405 -104 118 5 238 36 304 76 l32
20 -63 131 c-36 73 -66 134 -69 136 -2 2 -24 -5 -50 -16 -67 -30 -152 -36
-222 -16 -81 24 -157 100 -181 181 -72 248 165 450 405 344 24 -10 45 -19 47
-19 2 0 34 59 70 132 l66 131 -24 19 c-31 24 -119 57 -198 74 -60 13 -222 17
-280 7z"/>
<path d="M13535 8070 c-178 -36 -356 -172 -438 -336 -56 -112 -74 -285 -42
-408 49 -189 211 -360 405 -427 91 -31 275 -38 391 -14 154 31 286 110 369
218 22 30 40 57 40 60 0 4 -63 39 -141 77 l-141 71 -45 -41 c-68 -63 -122 -84
-223 -84 -73 0 -92 4 -136 26 -79 42 -124 108 -124 186 l0 22 415 0 415 0 0
83 c0 97 -26 210 -66 288 -64 127 -224 241 -382 274 -77 16 -230 18 -297 5z
m242 -265 c60 -25 93 -64 114 -137 l8 -28 -221 0 -220 0 6 32 c10 51 50 103
98 127 53 26 160 29 215 6z"/>
<path d="M9470 7475 l0 -575 200 0 200 0 0 575 0 575 -200 0 -200 0 0 -575z"/>
<path d="M11037 8043 c-4 -3 -7 -262 -7 -575 l0 -568 200 0 200 0 0 575 0 575
-193 0 c-107 0 -197 -3 -200 -7z"/>
<path d="M11587 7942 c32 -59 171 -318 308 -575 l250 -467 135 0 135 0 245
457 c135 251 273 510 308 575 l63 118 -236 -2 -236 -3 -139 -310 -139 -310
-27 60 c-15 33 -78 173 -140 310 l-112 250 -236 3 -236 2 57 -108z"/>
</g>
</svg>
